<svg height="512pt" viewBox="0 -53 512 512" width="512pt" xmlns="http://www.w3.org/2000/svg"><path d="m512 190.761719c0-105.1875-85.574219-190.761719-190.761719-190.761719-56.820312 0-110.277343 25.070312-146.671875 68.78125-2.648437 3.183594-2.214844 7.910156.964844 10.5625 1.972656 1.640625 4.539062 2.097656 6.835938 1.453125 1.945312 21.386719 16.695312 41.058594 42.039062 55.824219 25.988281 15.136718 60.375 23.472656 96.832031 23.472656s70.847657-8.335938 96.832031-23.472656c24.527344-14.292969 39.132813-33.175782 41.8125-53.761719 8.839844 11.332031 16.316407 23.777344 22.199219 37.078125-16.992187 42.222656-84.054687 72.65625-160.84375 72.65625-76.75 0-143.898437-30.472656-160.859375-72.707031 1.683594-3.828125 3.488282-7.597657 5.445313-11.292969 1.9375-3.660156.542969-8.199219-3.117188-10.136719-3.660156-1.941406-8.199219-.542969-10.136719 3.117188-14.453124 27.277343-22.09375 58.117187-22.09375 89.1875 0 35.183593 9.503907 69.089843 27.578126 98.835937h-29.652344c-2.203125-4.285156-6.664063-7.230468-11.804688-7.230468h-20.742187c-7.320313 0-13.277344 5.953124-13.277344 13.277343v89.945313h-56.960937c-5.855469 0-10.617188-4.761719-10.617188-10.613282v-59.761718c0-5.855469 4.761719-10.617188 10.617188-10.617188h29.726562c4.140625 0 7.5-3.355468 7.5-7.5 0-4.140625-3.359375-7.5-7.5-7.5h-29.726562c-14.125 0-25.617188 11.492188-25.617188 25.617188v59.761718c0 14.121094 11.492188 25.613282 25.617188 25.613282h59.296874c2.394532 3.480468 6.402344 5.773437 10.941407 5.773437h20.742187c4.535156 0 8.542969-2.292969 10.941406-5.773437h185.894532c2.394531 3.480468 6.402344 5.773437 10.941406 5.773437h20.738281c4.539063 0 8.546875-2.292969 10.941407-5.773437h59.296874c14.125 0 25.617188-11.492188 25.617188-25.613282v-35.722656c45.179688-36.4375 71.03125-90.351562 71.03125-148.492187zm-74.167969 80.039062c-26.035156 8.042969-54.035156 13.257813-83.269531 15.527344-2.40625-2.441406-5.753906-3.964844-9.449219-3.964844h-20.738281c-4.277344 0-8.078125 2.042969-10.507812 5.191407-58.449219-.996094-114.175782-13.851563-157.75-36.402344-5.546876-15.164063-8.972657-31.078125-10.164063-47.386719 41.480469 32.371094 105.519531 51.347656 175.285156 51.347656 38.195313 0 75.804688-5.855469 108.765625-16.933593 25.851563-8.691407 48.519532-20.464844 66.511719-34.445313-1.1875 16.386719-4.609375 32.300781-10.101563 47.382813-14.789062 7.660156-31.109374 14.285156-48.582031 19.683593zm-307.960937 33.796875h181.226562v80.992188h-181.226562zm274.695312-252.425781c0 24.617187-38.160156 45.414063-83.328125 45.414063s-83.324219-20.796876-83.324219-45.414063c0-7.25 3.238282-14.257813 9.628907-20.824219.097656-.101562.183593-.207031.273437-.308594 5.28125-2.429687 10.679688-4.601562 16.1875-6.496093-.199218 1.273437-.308594 2.566406-.308594 3.867187 0 20.554688 25.277344 36.652344 57.542969 36.652344 32.269531 0 57.542969-16.097656 57.542969-36.652344 0-1.292968-.105469-2.570312-.304688-3.835937 5.535157 1.910156 10.941407 4.09375 16.210938 6.527343 4.613281 4.675782 9.878906 11.996094 9.878906 21.070313zm-45.261718-33.007813c2.183593 2.214844 4.476562 5.441407 4.476562 9.246094 0 10.242188-17.472656 21.65625-42.542969 21.65625-25.070312 0-42.542969-11.414062-42.542969-21.65625 0-3.148437 1.53125-6.261718 4.511719-9.265625 12.363281-2.730469 25.101563-4.144531 38.03125-4.144531 13.070313 0 25.804688 1.445312 38.066407 4.164062zm51.214843 104.496094c-23.726562 13.820313-55.433593 21.433594-89.28125 21.433594-33.84375 0-65.550781-7.613281-89.28125-21.433594-22.453125-13.082031-34.820312-30.035156-34.820312-47.734375 0-3.789062.578125-7.585937 1.714843-11.308593 7.703126-7.480469 16.019532-14.183594 24.832032-20.074219-.503906 2.515625-.769532 5.0625-.769532 7.628906 0 33.875 43.1875 60.414063 98.324219 60.414063s98.328125-26.535157 98.328125-60.414063c0-2.53125-.261718-5.042969-.75-7.527344 8.894532 5.960938 17.214844 12.714844 24.863282 20.152344 1.097656 3.664063 1.660156 7.402344 1.660156 11.128906 0 17.699219-12.367188 34.652344-34.820313 47.734375zm-201.613281 60.53125c31.648438 15.089844 71.542969 23.402344 112.332031 23.402344 40.875 0 80.832031-8.339844 112.511719-23.488281 24.914062-11.914063 44.019531-27.667969 55.382812-45.390625 4.453126 14.332031 7.101563 29.445312 7.71875 45.074218-37.433593 34.789063-104.386718 56.324219-175.613281 56.324219-71.210937 0-138.175781-21.539062-175.605469-56.316406.609376-15.316406 3.214844-30.496094 7.714844-45.070313 11.390625 17.757813 30.566406 33.546876 55.558594 45.464844zm-43.457031 88.03125c15.769531 6.925782 32.746093 12.742188 50.589843 17.375h-40.15625c-3.828124-5.617187-7.308593-11.417968-10.433593-17.375zm-50.578125 119.140625h-17.292969v-94h17.292969zm311.097656-16.386719c0 5.851563-4.761719 10.613282-10.613281 10.613282h-56.964844v-38.808594c0-4.140625-3.355469-7.5-7.5-7.5-4.140625 0-7.5 3.355469-7.5 7.5v44.582031h-17.292969v-94h17.292969v12.78125c0 4.140625 3.359375 7.5 7.5 7.5 4.144531 0 7.5-3.355469 7.5-7.5v-5.546875h56.964844c5.851562 0 10.613281 4.761719 10.613281 10.613282zm15-55.527343v-4.234375c0-11.644532-7.8125-21.492188-18.46875-24.59375 6.691406-1.664063 13.285156-3.488282 19.757812-5.488282h.003907c12.179687-3.765624 23.839843-8.105468 34.875-12.957031-9.160157 17.515625-21.328125 33.503907-36.167969 47.273438zm0 0"/></svg>