<?xml version="1.0" encoding="iso-8859-1"?>
<!-- Generator: Adobe Illustrator 19.0.0, SVG Export Plug-In . SVG Version: 6.00 Build 0)  -->
<svg version="1.1" id="Capa_1" xmlns="http://www.w3.org/2000/svg" xmlns:xlink="http://www.w3.org/1999/xlink" x="0px" y="0px"
	 viewBox="0 0 512.001 512.001" style="enable-background:new 0 0 512.001 512.001;" xml:space="preserve">
<g>
	<g>
		<g>
			<path d="M504.5,238.232c-4.143,0-7.5,3.358-7.5,7.5v17.08h-15.073c-13.678-35.963-48.503-61.588-89.207-61.588
				c-52.605,0-95.402,42.797-95.402,95.402c0,30.833,15.022,59.92,40.184,77.807c3.376,2.401,8.059,1.608,10.459-1.768
				c2.399-3.376,1.608-8.058-1.768-10.458c-21.212-15.079-33.875-39.595-33.875-65.581c0-44.334,36.068-80.402,80.402-80.402
				c44.335,0,80.403,36.068,80.403,80.402c0,44.334-36.068,80.403-80.403,80.403c-9.449,0-18.697-1.622-27.489-4.82
				c-3.892-1.414-8.196,0.594-9.611,4.484c-1.416,3.893,0.592,8.196,4.484,9.612c10.44,3.797,21.413,5.723,32.616,5.723
				c40.614,0,75.376-25.513,89.116-61.351H497v79.088c0,1.983-1.613,3.597-3.597,3.597H18.597c-1.983,0-3.597-1.613-3.597-3.597
				v-79.088h15.165c13.74,35.838,48.502,61.351,89.115,61.351c52.606,0,95.403-42.797,95.403-95.403
				c0-52.605-42.797-95.402-95.403-95.402c-40.703,0-75.528,25.626-89.206,61.588H15v-79.326c0-1.983,1.613-3.597,3.597-3.597H50.05
				c4.142,0,7.5-3.358,7.5-7.5c0-4.142-3.358-7.5-7.5-7.5H18.597C8.342,164.889,0,173.231,0,183.486v226.281
				c0,10.254,8.342,18.597,18.597,18.597h474.807c10.254,0,18.597-8.342,18.597-18.597V245.732
				C512,241.59,508.643,238.232,504.5,238.232z M119.28,216.224c44.334,0,80.403,36.068,80.403,80.402
				c0,44.334-36.068,80.403-80.403,80.403c-44.334,0-80.402-36.068-80.402-80.403C38.877,252.292,74.946,216.224,119.28,216.224z
				 M15,277.812h10.744c-1.222,6.085-1.867,12.375-1.867,18.814c0,6.523,0.66,12.894,1.913,19.052H15V277.812z M497,315.678h-10.79
				c1.253-6.158,1.913-12.529,1.913-19.052c0-6.439-0.645-12.729-1.867-18.814H497V315.678z"/>
			<path d="M74.033,179.889h419.37c1.983,0,3.597,1.614,3.597,3.597v38.247c0,4.142,3.357,7.5,7.5,7.5s7.5-3.358,7.5-7.5v-38.247
				c0-10.255-8.343-18.597-18.597-18.597h-85.366v-54.205c0-14.914-12.133-27.047-27.047-27.047H131.01
				c-14.914,0-27.047,12.133-27.047,27.047v54.205h-29.93c-4.142,0-7.5,3.358-7.5,7.5C66.533,176.531,69.891,179.889,74.033,179.889
				z M353.944,164.889h-0.001H158.057V137.73h195.887V164.889z M317.932,98.637h63.058c6.643,0,12.047,5.404,12.047,12.047v54.205
				h-24.094V130.23c0-4.142-3.357-7.5-7.5-7.5h-43.511V98.637z M209.067,98.637h93.865v24.094h-93.865V98.637z M118.963,110.683
				c0-6.643,5.404-12.047,12.047-12.047h63.058v24.094h-43.511c-4.142,0.001-7.5,3.358-7.5,7.5v34.658h-24.094V110.683z"/>
			<path d="M466.874,296.626c0-40.889-33.266-74.154-74.154-74.154c-40.889,0-74.154,33.266-74.154,74.154
				c0,40.889,33.266,74.154,74.154,74.154S466.874,337.515,466.874,296.626z M333.565,296.626c0-32.618,26.536-59.154,59.154-59.154
				c32.618,0,59.154,26.537,59.154,59.154s-26.536,59.154-59.154,59.154C360.102,355.78,333.565,329.244,333.565,296.626z"/>
			<path d="M234.033,330.678h43.934c4.143,0,7.5-3.358,7.5-7.5c0-4.142-3.357-7.5-7.5-7.5h-43.934c-4.142,0-7.5,3.358-7.5,7.5
				C226.533,327.32,229.891,330.678,234.033,330.678z"/>
			<path d="M310.693,228.011v-21.673c0-7.46-6.069-13.53-13.53-13.53h-82.326c-7.46,0-13.53,6.069-13.53,13.53v21.673
				c0,7.461,6.07,13.53,13.53,13.53h82.326C304.624,241.541,310.693,235.471,310.693,228.011z M261.832,226.541h-45.525v-18.733
				h45.525V226.541z M295.693,226.541h-18.861v-18.733h18.861V226.541z"/>
			<path d="M119.28,370.78c40.889,0,74.154-33.266,74.154-74.154c0-40.889-33.266-74.154-74.154-74.154
				c-40.888,0-74.154,33.266-74.154,74.154C45.125,337.515,78.391,370.78,119.28,370.78z M119.28,237.472
				c32.618,0,59.154,26.537,59.154,59.154s-26.537,59.154-59.154,59.154c-32.617,0-59.154-26.537-59.154-59.154
				S86.662,237.472,119.28,237.472z"/>
			<path d="M201.307,367.759v19.402c0,7.461,6.069,13.53,13.53,13.53h82.327c7.461,0,13.53-6.069,13.53-13.53v-19.402
				c0-7.461-6.069-13.53-13.53-13.53h-82.327C207.376,354.229,201.307,360.299,201.307,367.759z M279.231,369.229h16.462v16.462
				h-16.462V369.229z M247.769,369.229h16.462v16.462h-16.462V369.229z M216.307,369.229h16.462v16.462h-16.462V369.229z"/>
			<path d="M277.967,304.126c4.143,0,7.5-3.358,7.5-7.5c0-4.142-3.357-7.5-7.5-7.5h-43.934c-4.142,0-7.5,3.358-7.5,7.5
				c0,4.142,3.358,7.5,7.5,7.5H277.967z"/>
		</g>
	</g>
</g>
<g>
</g>
<g>
</g>
<g>
</g>
<g>
</g>
<g>
</g>
<g>
</g>
<g>
</g>
<g>
</g>
<g>
</g>
<g>
</g>
<g>
</g>
<g>
</g>
<g>
</g>
<g>
</g>
<g>
</g>
</svg>
